Coordinates
version=1
nRows=11
nColumns=36
inDegrees=yes

Units are S.I. units (second, meters, Newtons, ...)
If the header above contains a line with 'inDegrees', this indicates whether rotational values are in degrees (yes) or radians (no).

endheader
time	pelvis_tilt	pelvis_list	pelvis_rotation	pelvis_tx	pelvis_ty	pelvis_tz	hip_flexion_r	hip_adduction_r	hip_rotation_r	knee_angle_r	knee_angle_r_beta	ankle_angle_r	subtalar_angle_r	mtp_angle_r	hip_flexion_l	hip_adduction_l	hip_rotation_l	knee_angle_l	knee_angle_l_beta	ankle_angle_l	subtalar_angle_l	mtp_angle_l	lumbar_extension	lumbar_bending	lumbar_rotation	arm_flex_r	arm_add_r	arm_rot_r	elbow_flex_r	pro_sup_r	arm_flex_l	arm_add_l	arm_rot_l	elbow_flex_l	pro_sup_l
      0.00000000	     -0.55161501	      0.96691502	     -0.39872637	     -0.97181809	      1.32828897	     -0.09489591	     -1.41056026	     -3.74661184	      6.06386416	      3.20568919	      0.05594983	      7.61877290	    -10.59667361	     -5.82599139	     -0.79298702	     -0.07411417	      6.04211617	      3.13407458	      0.05469992	      8.75618050	     -6.13226659	     -5.82599139	    -12.98527400	      1.18642446	      1.75284103	     11.40033124	     -6.38683021	     45.18188623	     38.29017958	     70.18720332	      9.42748806	     -5.71758080	     30.49569139	     32.58547158	     64.65625178
      0.00416670	     -0.64609310	      0.94586000	     -0.44784986	     -0.97213547	      1.33037556	     -0.09491269	     -1.54182589	     -3.58229961	      7.26066418	      2.56902906	      0.04483802	     10.49209898	     -8.31166871	     -6.12894430	     -0.79297731	      0.20109288	      7.91634820	      2.97003099	      0.05183682	      8.18705450	     -8.30007494	     -6.12894430	    -12.80499092	      1.11847672	      2.22105780	     11.80072943	     -6.59262311	     45.68788059	     38.52446759	     70.84617719	      9.97838105	     -5.55339922	     30.95749989	     32.24111953	     65.25037301
      0.00833330	     -1.04344642	      1.15566931	     -1.13481532	     -0.97138076	      1.33332175	     -0.09387917	     -1.35203995	     -3.76577371	      7.75920650	      1.93091324	      0.03370079	     10.39935466	     -8.66055630	     -6.36388309	     -0.54509800	      0.42199941	      8.15822668	      2.75916525	      0.04815652	      7.94296921	     -8.79733882	     -6.36388309	    -12.78755895	      0.44926795	      2.90581096	     12.00621855	     -6.21109693	     45.38653425	     38.07179354	     70.41184642	     10.34632573	     -5.69126175	     30.66077496	     31.88060110	     65.13344129
      0.01250000	      0.12649674	      1.18354466	     -1.59568286	     -0.97266949	      1.33328680	     -0.09393951	     -2.69682862	     -3.95473059	      8.26557613	      1.55928602	      0.02721468	     10.13077927	     -9.08262974	     -6.63148117	     -2.16309182	      0.52243570	      8.86901481	      2.00521891	      0.03499767	      7.60275311	     -9.78508599	     -6.63148117	    -14.56775955	      0.17237835	      3.46504967	     12.30623125	     -6.52363879	     45.61221469	     39.01746058	     72.28155683	     10.97377025	     -6.04097446	     31.41040724	     31.97693821	     67.04881390
      0.01666670	      0.17526157	      1.18547327	     -1.95783432	     -0.97432667	      1.33234140	     -0.09325272	     -2.67134692	     -4.01444296	      8.54772904	      1.50916074	      0.02633982	      9.95875517	     -9.19654435	     -7.02638415	     -2.32012920	      0.57792228	      9.40154163	      1.71573585	      0.02994524	      7.32308913	    -10.67959560	     -7.02638415	    -14.93890140	      0.07281552	      4.14262104	     11.84400745	     -6.46978949	     42.76801071	     39.67813792	     85.42975237	     11.08165158	     -5.73430455	     29.18796773	     31.73330168	     79.29910147
      0.02083330	      0.55175439	      1.24963894	     -2.23840905	     -0.97238290	      1.33185488	     -0.09305679	     -3.12866764	     -4.14816108	      8.86372167	      1.38944279	      0.02425035	      9.69945887	     -9.56369086	     -7.17394732	     -2.82793615	      0.65945459	      9.79422651	      1.49873779	      0.02615791	      7.25645314	    -11.21943915	     -7.17394732	    -15.29649195	     -0.03286904	      4.47728818	     11.95413987	     -6.80786800	     44.29749602	     40.73151271	     82.38233457	     11.07079191	     -5.77024469	     29.75762635	     31.87362571	     77.56508606
      0.02500000	      0.37738008	      1.31345929	     -2.40309537	     -0.97303696	      1.33509309	     -0.09368113	     -2.91103870	     -4.26179688	      9.00425589	      1.33868550	      0.02336447	      9.45973978	     -9.77170127	     -7.38943528	     -2.65971111	      0.75262273	     10.20399431	      1.39679235	      0.02437863	      7.02635139	    -11.94885359	     -7.38943528	    -15.09106800	     -0.04551529	      4.70309055	     11.82927348	     -7.04008473	     44.61874499	     41.50013063	     86.17061418	     10.91083321	     -5.53479979	     28.54563409	     31.81057009	     84.38276765
      0.02916670	      0.50926402	      1.35641892	     -2.55817090	     -0.97301618	      1.33157046	     -0.09355981	     -3.01752176	     -4.32437994	      9.31716644	      1.27659527	      0.02228079	      9.26686196	    -10.04442378	     -7.38947881	     -2.83988484	      0.83152079	     10.59065968	      1.36237366	      0.02377791	      6.88057249	    -12.67017818	     -7.38947881	    -15.20747340	     -0.06431125	      4.92542445	     11.75717331	     -7.38854803	     45.50628476	     42.58876129	     85.73161458	     10.89888159	     -5.48842366	     28.73141375	     31.94562741	     84.24355514
      0.03333330	      0.51033365	      1.41212694	     -2.62460773	     -0.97122280	      1.33640237	     -0.09332121	     -3.07116764	     -4.37831537	      9.48166468	      1.14691323	      0.02001741	      9.09727665	     -9.86369560	     -7.38997376	     -2.93204501	      0.88221325	     10.66290481	      1.30851853	      0.02283796	      6.78174199	    -12.69913067	     -7.38997376	    -15.05961385	     -0.10655357	      4.99114320	     11.59609797	     -7.38316313	     45.70782794	     42.76197507	     85.75066219	     10.73357528	     -5.50011005	     28.81634867	     31.88211640	     84.29821292
      0.03750000	      0.69589047	      1.42195172	     -2.76962700	     -0.97061306	      1.33423185	     -0.09315409	     -3.30173699	     -4.40391254	      9.61356698	      1.03569590	      0.01807630	      9.09206224	     -9.89533938	     -7.47306678	     -3.25274467	      0.91651447	     10.81685711	      1.22977586	      0.02146364	      6.43999296	    -13.44766128	     -7.47306678	    -15.15903196	     -0.11146594	      5.15360382	     11.58460622	     -7.90547480	     47.26554908	     43.78803790	     85.48606386	     10.70741246	     -5.54808180	     29.06371027	     31.72710435	     87.39664216
      0.04166670	      0.88919192	      1.46017429	     -2.90777241	     -0.97124337	      1.33422253	     -0.09320691	     -3.54452341	     -4.44672522	      9.98773589	      0.93594456	      0.01633531	      8.91100840	    -10.37930323	     -7.48536508	     -3.54983637	      0.97411394	     10.72743880	      1.14580361	      0.01999805	      6.31925455	    -13.61449981	     -7.48536508	    -15.26028549	     -0.11236286	      5.12830159	     11.81447983	     -8.26333497	     49.39129261	     44.28198368	     77.96720716	     10.70900732	     -5.77126432	     30.90251122	     31.60069857	     79.57578241
